<?xml version="1.0" encoding="UTF-8" standalone="no"?>
<!DOCTYPE svg PUBLIC "-//W3C//DTD SVG 1.1//EN"
 "http://www.w3.org/Graphics/SVG/1.1/DTD/svg11.dtd">
<!-- Generated by graphviz version 5.0.0 (0)
 -->
<!-- Title: G Pages: 1 -->
<svg width="366pt" height="188pt"
 viewBox="0.00 0.00 365.50 188.00" xmlns="http://www.w3.org/2000/svg" xmlns:xlink="http://www.w3.org/1999/xlink">
<g id="graph0" class="graph" transform="scale(1 1) rotate(0) translate(4 184)">
<title>G</title>
<polygon fill="white" stroke="transparent" points="-4,4 -4,-184 361.5,-184 361.5,4 -4,4"/>
<!-- main -->
<g id="node1" class="node">
<title>main</title>
<polygon fill="lightgray" stroke="black" points="201,-180 138,-180 138,-144 207,-144 207,-174 201,-180"/>
<polyline fill="none" stroke="black" points="201,-180 201,-174 "/>
<polyline fill="none" stroke="black" points="207,-174 201,-174 "/>
<text text-anchor="middle" x="172.5" y="-158.3" font-family="Lato" font-size="14.00">main.org</text>
</g>
<!-- intro -->
<g id="node2" class="node">
<title>intro</title>
<polygon fill="white" stroke="black" points="63,-108 0,-108 0,-72 69,-72 69,-102 63,-108"/>
<polyline fill="none" stroke="black" points="63,-108 63,-102 "/>
<polyline fill="none" stroke="black" points="69,-102 63,-102 "/>
<text text-anchor="middle" x="34.5" y="-86.3" font-family="Lato" font-size="14.00">intro.org</text>
</g>
<!-- main&#45;&gt;intro -->
<g id="edge1" class="edge">
<title>main&#45;&gt;intro</title>
<path fill="none" stroke="black" d="M138.74,-143.88C120.28,-134.51 97.22,-122.81 77.48,-112.8"/>
<polygon fill="black" stroke="black" points="78.89,-109.59 68.39,-108.19 75.72,-115.83 78.89,-109.59"/>
</g>
<!-- chap1 -->
<g id="node3" class="node">
<title>chap1</title>
<polygon fill="white" stroke="black" points="158,-108 87,-108 87,-72 164,-72 164,-102 158,-108"/>
<polyline fill="none" stroke="black" points="158,-108 158,-102 "/>
<polyline fill="none" stroke="black" points="164,-102 158,-102 "/>
<text text-anchor="middle" x="125.5" y="-86.3" font-family="Lato" font-size="14.00">chap1.org</text>
</g>
<!-- main&#45;&gt;chap1 -->
<g id="edge2" class="edge">
<title>main&#45;&gt;chap1</title>
<path fill="none" stroke="black" d="M160.88,-143.7C155.36,-135.47 148.65,-125.48 142.57,-116.42"/>
<polygon fill="black" stroke="black" points="145.46,-114.46 136.98,-108.1 139.65,-118.36 145.46,-114.46"/>
</g>
<!-- chap2 -->
<g id="node4" class="node">
<title>chap2</title>
<polygon fill="white" stroke="black" points="253,-108 182,-108 182,-72 259,-72 259,-102 253,-108"/>
<polyline fill="none" stroke="black" points="253,-108 253,-102 "/>
<polyline fill="none" stroke="black" points="259,-102 253,-102 "/>
<text text-anchor="middle" x="220.5" y="-86.3" font-family="Lato" font-size="14.00">chap2.org</text>
</g>
<!-- main&#45;&gt;chap2 -->
<g id="edge3" class="edge">
<title>main&#45;&gt;chap2</title>
<path fill="none" stroke="black" d="M184.37,-143.7C190,-135.47 196.85,-125.48 203.07,-116.42"/>
<polygon fill="black" stroke="black" points="206,-118.33 208.77,-108.1 200.23,-114.37 206,-118.33"/>
</g>
<!-- chapn -->
<g id="node7" class="node">
<title>chapn</title>
<polygon fill="white" stroke="black" points="351.5,-108 277.5,-108 277.5,-72 357.5,-72 357.5,-102 351.5,-108"/>
<polyline fill="none" stroke="black" points="351.5,-108 351.5,-102 "/>
<polyline fill="none" stroke="black" points="357.5,-102 351.5,-102 "/>
<text text-anchor="middle" x="317.5" y="-86.3" font-family="Lato" font-size="14.00">chapN.org</text>
</g>
<!-- main&#45;&gt;chapn -->
<g id="edge4" class="edge">
<title>main&#45;&gt;chapn</title>
<path fill="none" stroke="black" d="M207.23,-144.23C226.94,-134.72 251.81,-122.71 272.94,-112.51"/>
<polygon fill="black" stroke="black" points="274.56,-115.62 282.04,-108.12 271.52,-109.31 274.56,-115.62"/>
</g>
<!-- chap21 -->
<g id="node5" class="node">
<title>chap21</title>
<polygon fill="white" stroke="black" points="205.5,-36 95.5,-36 95.5,0 211.5,0 211.5,-30 205.5,-36"/>
<polyline fill="none" stroke="black" points="205.5,-36 205.5,-30 "/>
<polyline fill="none" stroke="black" points="211.5,-30 205.5,-30 "/>
<text text-anchor="middle" x="153.5" y="-14.3" font-family="Lato" font-size="14.00">chap2&#45;part1.org</text>
</g>
<!-- chap2&#45;&gt;chap21 -->
<g id="edge5" class="edge">
<title>chap2&#45;&gt;chap21</title>
<path fill="none" stroke="black" d="M203.94,-71.7C195.82,-63.22 185.91,-52.86 177.03,-43.58"/>
<polygon fill="black" stroke="black" points="179.31,-40.91 169.87,-36.1 174.26,-45.75 179.31,-40.91"/>
</g>
<!-- chap22 -->
<g id="node6" class="node">
<title>chap22</title>
<polygon fill="white" stroke="black" points="339.5,-36 229.5,-36 229.5,0 345.5,0 345.5,-30 339.5,-36"/>
<polyline fill="none" stroke="black" points="339.5,-36 339.5,-30 "/>
<polyline fill="none" stroke="black" points="345.5,-30 339.5,-30 "/>
<text text-anchor="middle" x="287.5" y="-14.3" font-family="Lato" font-size="14.00">chap2&#45;part2.org</text>
</g>
<!-- chap2&#45;&gt;chap22 -->
<g id="edge6" class="edge">
<title>chap2&#45;&gt;chap22</title>
<path fill="none" stroke="black" d="M237.06,-71.7C245.18,-63.22 255.09,-52.86 263.97,-43.58"/>
<polygon fill="black" stroke="black" points="266.74,-45.75 271.13,-36.1 261.69,-40.91 266.74,-45.75"/>
</g>
</g>
</svg>
