<?xml version="1.0" encoding="UTF-8" standalone="no"?>
<svg
   height="182.09358"
   viewBox="0 0 149.07484 194.84013"
   fill="none"
   version="1.1"
   id="svg4"
   sodipodi:docname="emacs-e-big.svg"
   width="149.07483"
   inkscape:version="1.1.1 (3bf5ae0d25, 2021-09-20, custom)"
   xmlns:inkscape="http://www.inkscape.org/namespaces/inkscape"
   xmlns:sodipodi="http://sodipodi.sourceforge.net/DTD/sodipodi-0.dtd"
   xmlns="http://www.w3.org/2000/svg"
   xmlns:svg="http://www.w3.org/2000/svg">
  <defs
     id="defs8" />
  <sodipodi:namedview
     id="namedview6"
     pagecolor="#ffffff"
     bordercolor="#999999"
     borderopacity="1"
     inkscape:pageshadow="0"
     inkscape:pageopacity="0"
     inkscape:pagecheckerboard="0"
     showgrid="false"
     inkscape:zoom="2.9075084"
     inkscape:cx="35.425521"
     inkscape:cy="96.130418"
     inkscape:window-width="1600"
     inkscape:window-height="872"
     inkscape:window-x="0"
     inkscape:window-y="0"
     inkscape:window-maximized="1"
     inkscape:current-layer="svg4"
     fit-margin-top="0"
     fit-margin-left="0"
     fit-margin-right="0"
     fit-margin-bottom="0" />
  <path
     d="M 60.392569,0 C 90.134396,7.586406 107.79903,18.624992 111.79744,27.148967 116.66572,37.527345 102.40048,44.481056 68.87489,37.978428 51.554236,34.618373 42.698577,36.988691 39.71722,41.061094 26.531399,59.052788 72.240552,89.816471 93.494356,102.39311 -9.7108901,76.666341 -56.844717,147.20206 76.967926,176.23207 c 11.44615,2.48377 33.405774,3.37276 33.349134,6.66926 -0.006,3.54399 -56.417927,3.83932 -86.174297,4.74773 20.295656,5.42813 69.093083,9.12166 100.822387,6.11413 30.84049,-2.9178 44.31006,-13.38937 5.41429,-22.95887 C 110.30435,165.86833 31.63036,150.94661 39.918906,135.04784 52.026953,111.83028 104.35435,117.42177 134.84194,114.25087 59.886707,62.72182 42.881198,50.580314 144.59892,63.843894 171.21021,69.750901 133.3437,26.444612 93.644166,8.333216 84.320566,4.633366 71.897602,1.775387 60.392569,0"
     fill="#61afee"
     id="path2"
     style="stroke-width:1.8692" />
</svg>
